<svg width="98" height="56" viewBox="0 0 98 56" fill="none" xmlns="http://www.w3.org/2000/svg">
<path opacity="0.5" d="M59.2361 49.6284C59.3968 49.8556 59.5084 50.0904 59.5665 50.3312L58.1083 50.6828C58.112 50.6981 58.1129 50.7093 58.1129 50.7183C58.1129 50.7274 58.112 50.7386 58.1083 50.7539L59.5665 51.1055C59.5084 51.3463 59.3968 51.5811 59.2361 51.8083L58.0114 50.9422C57.951 51.0277 57.858 51.1336 57.7198 51.2547L58.7086 52.3827C58.525 52.5437 58.3155 52.6994 58.0822 52.849L57.2722 51.5866C57.1122 51.6892 56.9305 51.7928 56.7266 51.8956L57.4021 53.2349C57.1794 53.3472 56.9421 53.4552 56.6913 53.5583L56.1209 52.171C55.9184 52.2542 55.7028 52.3351 55.4747 52.4129L55.9591 53.8326C55.7195 53.9143 55.4703 53.9922 55.2124 54.0658L54.8008 52.6233C54.5787 52.6867 54.348 52.7471 54.1092 52.804L54.4573 54.2631C54.2092 54.3223 53.9545 54.3778 53.6937 54.4294L53.4024 52.958C53.1688 53.0042 52.9292 53.0473 52.6839 53.0869L52.9232 54.5677C52.6704 54.6086 52.4128 54.6459 52.1508 54.6796L51.9596 53.1918C51.7197 53.2227 51.4755 53.2503 51.2272 53.2745L51.373 54.7674C51.1171 54.7924 50.8577 54.8139 50.595 54.8319L50.4925 53.3354C50.2492 53.3521 50.0026 53.3655 49.7532 53.3756L49.8138 54.8744C49.5561 54.8848 49.2957 54.8919 49.0329 54.8954L49.0129 53.3955C48.8896 53.3972 48.7658 53.398 48.6414 53.398C48.517 53.398 48.3931 53.3972 48.2699 53.3955L48.2498 54.8954C47.9871 54.8919 47.7266 54.8848 47.4689 54.8744L47.5296 53.3756C47.2801 53.3655 47.0336 53.3521 46.7902 53.3354L46.6877 54.8319C46.425 54.8139 46.1656 54.7924 45.9098 54.7674L46.0555 53.2745C45.8072 53.2503 45.563 53.2227 45.3232 53.1918L45.1319 54.6796C44.8699 54.6459 44.6123 54.6086 44.3595 54.5677L44.5989 53.0869C44.3536 53.0473 44.1139 53.0042 43.8803 52.958L43.589 54.4294C43.3282 54.3778 43.0735 54.3223 42.8254 54.2631L43.1736 52.804C42.9348 52.7471 42.7041 52.6867 42.4819 52.6233L42.0704 54.0658C41.8124 53.9922 41.5632 53.9143 41.3236 53.8326L41.808 52.4129C41.5799 52.3351 41.3644 52.2542 41.1619 52.171L40.5915 53.5583C40.3407 53.4552 40.1034 53.3472 39.8806 53.2349L40.5562 51.8956C40.3523 51.7928 40.1706 51.6892 40.0105 51.5866L39.2005 52.849C38.9672 52.6994 38.7578 52.5437 38.5741 52.3827L39.5629 51.2547C39.4247 51.1336 39.3318 51.0277 39.2713 50.9422L38.0466 51.8083C37.8859 51.5811 37.7743 51.3463 37.7162 51.1055L39.1745 50.7539C39.1708 50.7386 39.1698 50.7274 39.1698 50.7183C39.1698 50.7093 39.1708 50.6981 39.1745 50.6828L37.7162 50.3312C37.7743 50.0904 37.8859 49.8556 38.0466 49.6284L39.2713 50.4944C39.3318 50.409 39.4247 50.3031 39.5629 50.182L38.5741 49.054C38.7578 48.893 38.9672 48.7373 39.2005 48.5876L40.0105 49.8501C40.1706 49.7474 40.3523 49.6439 40.5562 49.5411L39.8806 48.2018C40.1034 48.0894 40.3407 47.9815 40.5915 47.8784L41.1619 49.2657C41.3644 49.1824 41.5799 49.1016 41.808 49.0237L41.3236 47.6041C41.5632 47.5223 41.8124 47.4445 42.0704 47.3709L42.4819 48.8133C42.7041 48.75 42.9348 48.6896 43.1736 48.6326L42.8254 47.1736C43.0735 47.1144 43.3282 47.0589 43.589 47.0073L43.8803 48.4787C44.1139 48.4324 44.3536 48.3894 44.5989 48.3497L44.3595 46.869C44.6123 46.8281 44.8699 46.7908 45.1319 46.7571L45.3232 48.2448C45.563 48.214 45.8072 48.1864 46.0555 48.1622L45.9098 46.6693C46.1656 46.6443 46.425 46.6227 46.6877 46.6048L46.7902 48.1013C47.0336 48.0846 47.2801 48.0711 47.5296 48.0611L47.4689 46.5623C47.7266 46.5519 47.9871 46.5448 48.2498 46.5413L48.2699 48.0412C48.3931 48.0395 48.517 48.0387 48.6414 48.0387C48.7658 48.0387 48.8896 48.0395 49.0129 48.0412L49.0329 46.5413C49.2957 46.5448 49.5561 46.5519 49.8138 46.5623L49.7532 48.0611C50.0026 48.0711 50.2492 48.0846 50.4925 48.1013L50.595 46.6048C50.8577 46.6227 51.1171 46.6443 51.373 46.6693L51.2272 48.1622C51.4755 48.1864 51.7197 48.214 51.9596 48.2448L52.1508 46.7571C52.4128 46.7908 52.6704 46.8281 52.9232 46.869L52.6839 48.3497C52.9292 48.3894 53.1688 48.4324 53.4024 48.4787L53.6937 47.0073C53.9545 47.0589 54.2093 47.1144 54.4573 47.1736L54.1092 48.6326C54.348 48.6896 54.5787 48.75 54.8008 48.8133L55.2124 47.3709C55.4703 47.4445 55.7195 47.5223 55.9591 47.6041L55.4747 49.0237C55.7028 49.1016 55.9184 49.1824 56.1209 49.2657L56.6913 47.8784C56.9421 47.9815 57.1794 48.0894 57.4021 48.2018L56.7266 49.5411C56.9305 49.6439 57.1122 49.7474 57.2722 49.8501L58.0822 48.5876C58.3155 48.7373 58.525 48.893 58.7086 49.054L57.7198 50.182C57.858 50.3031 57.951 50.409 58.0114 50.4945L59.2361 49.6284Z" stroke="#E3EDFF" stroke-width="3" stroke-linejoin="round" stroke-dasharray="0.8 0.8"/>
<path opacity="0.9" d="M53.6147 51.4262C53.259 51.7598 52.6588 52.0513 51.8799 52.2685C51.101 52.4858 50.1735 52.6205 49.199 52.6579C48.2245 52.6953 47.2407 52.634 46.3552 52.4806C45.4698 52.3273 44.717 52.0878 44.1793 51.7884C43.6416 51.4891 43.3397 51.1414 43.3068 50.7836C43.2739 50.4257 43.5112 50.0714 43.9928 49.7596C44.4743 49.4477 45.1814 49.1903 46.0367 49.0156C46.8919 48.8409 47.8623 48.7555 48.8415 48.7689L48.6414 50.7181L53.6147 51.4262Z" fill="#F38401"/>
<path d="M3.85158 12.5742C3.14658 9.16365 5.74872 5.96482 9.23136 5.96079L90.3956 5.86703C93.8231 5.86307 96.4193 8.96096 95.8161 12.3349L91.8304 34.6299C91.3603 37.2592 89.0692 39.1707 86.3983 39.162L13.76 38.9249C11.1584 38.9164 8.91854 37.0861 8.39187 34.5383L3.85158 12.5742Z" fill="url(#paint0_linear)" fill-opacity="0.4" stroke="url(#paint1_linear)"/>
<path d="M7.96307 13.7453C7.46982 11.5544 9.13826 9.47246 11.384 9.47655L87.909 9.61596C90.0823 9.61992 91.7266 11.5828 91.3496 13.7232L87.924 33.1688C87.6277 34.8505 86.1612 36.0729 84.4536 36.0615L15.6601 35.6021C14.0321 35.5912 12.6265 34.4592 12.2689 32.8709L7.96307 13.7453Z" fill="url(#paint2_linear)" fill-opacity="0.6" stroke="url(#paint3_linear)"/>
<g filter="url(#filter0_d)">
<path d="M39.7928 26.8742C39.2168 26.5968 38.6835 26.3195 38.1928 26.0422C37.7022 25.7542 37.2435 25.4502 36.8169 25.1302C36.5715 25.3542 36.3155 25.5782 36.0488 25.8022C35.7822 26.0155 35.5422 26.2022 35.3288 26.3622C35.6488 26.5008 35.9955 26.6555 36.3688 26.8262C36.7528 26.9862 37.1315 27.1515 37.5048 27.3222C37.8888 27.4822 38.2461 27.6422 38.5768 27.8022C38.9181 27.9622 39.2114 28.1008 39.4568 28.2182L38.8807 29.6742C38.582 29.5035 38.2194 29.3062 37.7927 29.0822C37.3767 28.8688 36.9394 28.6555 36.4807 28.4422C36.0221 28.2288 35.5741 28.0262 35.1368 27.8342C34.7101 27.6422 34.3421 27.4822 34.0328 27.3542L34.0327 28.3142C34.0327 28.6662 34.0007 28.9488 33.9367 29.1622C33.8834 29.3862 33.782 29.5622 33.6327 29.6902C33.4834 29.8182 33.286 29.9088 33.0407 29.9622C32.7954 30.0155 32.4914 30.0582 32.1287 30.0902L31.2167 30.1702L30.7687 28.6182L31.6967 28.5382C32.0594 28.5062 32.2887 28.4155 32.3847 28.2662C32.4808 28.1168 32.5288 27.8875 32.5288 27.5782L32.5288 27.2422C32.2728 27.3595 31.8994 27.5195 31.4088 27.7222C30.9288 27.9248 30.4168 28.1328 29.8727 28.3462C29.3394 28.5595 28.8274 28.7568 28.3367 28.9382C27.8461 29.1302 27.4727 29.2688 27.2167 29.3542L26.7048 28.0902C26.8968 28.0368 27.1421 27.9568 27.4408 27.8502C27.7394 27.7435 28.0648 27.6262 28.4168 27.4982C28.7688 27.3595 29.1315 27.2155 29.5048 27.0662C29.8781 26.9168 30.2301 26.7782 30.5608 26.6502C30.9021 26.5115 31.2061 26.3835 31.4728 26.2662C31.7395 26.1488 31.9475 26.0528 32.0968 25.9782L32.5288 27.1462L32.5289 23.3062L34.0329 23.3702L34.0328 26.8422L34.4168 25.9942C34.5128 26.0262 34.6142 26.0688 34.7208 26.1222C34.8382 26.1648 34.9608 26.2128 35.0888 26.2662L34.2888 25.3222C34.5342 25.1622 34.7742 24.9862 35.0089 24.7942C35.2542 24.5915 35.4835 24.3888 35.6969 24.1862C35.2809 23.7808 34.8862 23.3382 34.5129 22.8582H31.6009C31.2916 23.2635 30.9502 23.6528 30.5769 24.0262C30.8329 24.2182 31.0942 24.4262 31.3609 24.6502C31.6275 24.8742 31.8515 25.0768 32.0329 25.2582L31.0888 26.3942C30.8862 26.1595 30.6355 25.9142 30.3368 25.6582C30.0488 25.4022 29.7822 25.1728 29.5369 24.9702C29.1208 25.3115 28.6622 25.6422 28.1608 25.9622C27.6701 26.2822 27.1315 26.6075 26.5448 26.9382L25.8728 25.5622C26.7049 25.1142 27.4249 24.6768 28.0329 24.2502C28.6516 23.8128 29.1902 23.3488 29.6489 22.8582H26.6249L26.625 21.5782H30.625C30.8277 21.2475 31.009 20.9008 31.169 20.5382H27.761L27.7611 19.2742H31.6491C31.7024 19.1142 31.7504 18.9488 31.7931 18.7782C31.8357 18.6075 31.8784 18.4315 31.9211 18.2502H27.1691L27.1691 16.9862H32.1771C32.2198 16.7622 32.2571 16.5275 32.2892 16.2822C32.3318 16.0368 32.3585 15.8395 32.3692 15.6902L33.9692 15.7702C33.9585 15.9515 33.9372 16.1488 33.9052 16.3622C33.8838 16.5648 33.8518 16.7728 33.8091 16.9862H39.2811L39.2811 18.2502H33.5531C33.5104 18.4315 33.4677 18.6075 33.4251 18.7782C33.3931 18.9382 33.3504 19.1035 33.2971 19.2742H38.6731L38.673 20.5382H32.881C32.8063 20.7195 32.7263 20.8955 32.641 21.0662C32.5663 21.2368 32.4863 21.4075 32.401 21.5782H39.809L39.8089 22.8582H36.3849C36.8969 23.4022 37.4782 23.8715 38.1289 24.2662C38.7795 24.6608 39.5582 25.0502 40.4648 25.4342L39.7928 26.8742ZM46.6309 22.3942C46.7803 22.5222 46.9563 22.6928 47.1589 22.9062C47.3723 23.1088 47.5856 23.3222 47.7989 23.5462C48.0229 23.7702 48.2362 23.9995 48.4389 24.2342C48.6522 24.4582 48.8335 24.6555 48.9829 24.8262L47.9428 26.0422C47.7615 25.8075 47.5162 25.5142 47.2069 25.1622C46.8975 24.7995 46.5935 24.4582 46.2949 24.1382L46.2947 30.1862H44.7587L44.7589 24.0102C44.4069 24.6715 44.0282 25.3115 43.6228 25.9302C43.2175 26.5382 42.8175 27.0822 42.4228 27.5622L41.6228 25.9462C42.1562 25.3168 42.6789 24.6128 43.1909 23.8342C43.7029 23.0555 44.151 22.2662 44.535 21.4662H42.183L42.183 19.8982H44.759L44.7591 18.2182C44.3538 18.2928 43.9591 18.3622 43.5751 18.4262C43.2017 18.4795 42.8551 18.5275 42.5351 18.5702L42.3751 17.0502C42.7911 16.9968 43.2445 16.9275 43.7351 16.8422C44.2365 16.7568 44.7431 16.6662 45.2551 16.5702C45.7671 16.4742 46.2738 16.3728 46.7752 16.2662C47.2765 16.1595 47.7352 16.0475 48.1512 15.9302L48.4231 17.4502C48.1244 17.5355 47.7938 17.6155 47.4311 17.6902C47.0684 17.7648 46.6898 17.8448 46.2951 17.9302L46.295 19.8982H48.727L48.727 21.4662H46.295L46.2949 22.7462L46.6309 22.3942ZM55.3511 17.0502L55.3507 29.6422H53.8467L53.8467 28.6502H50.6147L50.6147 29.7382H49.0627L49.0631 17.0502H55.3511ZM53.8468 27.0342L53.8471 18.7302H50.6151L50.6148 27.0342H53.8468ZM62.125 21.4662C62.2636 21.6155 62.429 21.8075 62.621 22.0422C62.813 22.2662 63.0049 22.5062 63.1969 22.7622C63.3996 23.0075 63.5916 23.2528 63.7729 23.4982C63.9649 23.7328 64.1249 23.9355 64.2529 24.1062L63.1809 25.2102C63.0102 24.9435 62.8022 24.6342 62.5569 24.2822C62.3116 23.9302 62.0609 23.5942 61.8049 23.2742L61.8047 30.1862H60.1407L60.1409 23.2262C59.8636 23.8128 59.5542 24.3888 59.2129 24.9542C58.8822 25.5195 58.5355 26.0582 58.1728 26.5702L57.2289 25.2582C57.4635 24.9382 57.7035 24.5755 57.9489 24.1702C58.2049 23.7648 58.4556 23.3382 58.7009 22.8902C58.9463 22.4422 59.181 21.9782 59.405 21.4982C59.629 21.0182 59.8317 20.5435 60.013 20.0742H58.045L58.0451 18.5222H60.1411L60.1412 15.6102L61.8052 15.6742L61.8051 18.5222H63.7251L63.725 20.0742H61.805L61.805 21.7702L62.125 21.4662ZM71.821 20.3622H69.965L69.9648 27.8662C69.9647 28.2928 69.9221 28.6395 69.8367 28.9062C69.7514 29.1728 69.6127 29.3862 69.4207 29.5462C69.2287 29.7168 68.9727 29.8395 68.6527 29.9142C68.3434 29.9995 67.9594 30.0635 67.5007 30.1062L66.5087 30.2022L65.9807 28.5062L67.1007 28.4102C67.3461 28.3888 67.5434 28.3675 67.6927 28.3462C67.8527 28.3142 67.9754 28.2662 68.0608 28.2022C68.1461 28.1275 68.2048 28.0262 68.2368 27.8982C68.2688 27.7702 68.2848 27.5942 68.2848 27.3702L68.285 20.3622H64.029L64.0291 18.7462H68.2851L68.2852 15.7382L69.9652 15.8022L69.9651 18.7462H71.8211L71.821 20.3622ZM66.2208 25.8502C66.1035 25.5835 65.9542 25.2688 65.7729 24.9062C65.6022 24.5328 65.4156 24.1595 65.2129 23.7862C65.0102 23.4022 64.8076 23.0395 64.6049 22.6982C64.4023 22.3462 64.2263 22.0582 64.077 21.8342L65.341 21.0982C65.4796 21.3222 65.6503 21.6048 65.853 21.9462C66.0556 22.2875 66.2583 22.6448 66.4609 23.0182C66.6636 23.3915 66.8556 23.7595 67.0369 24.1222C67.2289 24.4742 67.3889 24.7782 67.5169 25.0342L66.2208 25.8502Z" fill="white"/>
</g>
<defs>
<filter id="filter0_d" x="21.8728" y="12.6102" width="53.9482" height="22.592" filterUnits="userSpaceOnUse" color-interpolation-filters="sRGB">
<feFlood flood-opacity="0" result="BackgroundImageFix"/>
<feColorMatrix in="SourceAlpha" type="matrix" values="0 0 0 0 0 0 0 0 0 0 0 0 0 0 0 0 0 0 127 0" result="hardAlpha"/>
<feOffset dy="1"/>
<feGaussianBlur stdDeviation="2"/>
<feColorMatrix type="matrix" values="0 0 0 0 0 0 0 0 0 0 0 0 0 0 0 0 0 0 0.25 0"/>
<feBlend mode="normal" in2="BackgroundImageFix" result="effect1_dropShadow"/>
<feBlend mode="normal" in="SourceGraphic" in2="effect1_dropShadow" result="shape"/>
</filter>
<linearGradient id="paint0_linear" x1="49.8953" y1="2.50957" x2="50.4887" y2="41.3125" gradientUnits="userSpaceOnUse">
<stop stop-color="#FF9900" stop-opacity="0"/>
<stop offset="1" stop-color="#FFAF37"/>
</linearGradient>
<linearGradient id="paint1_linear" x1="49.6523" y1="6.5758" x2="49.4321" y2="39.5003" gradientUnits="userSpaceOnUse">
<stop stop-color="white" stop-opacity="0"/>
<stop offset="1" stop-color="#FFAF37"/>
</linearGradient>
<linearGradient id="paint2_linear" x1="9.89261" y1="23.2857" x2="90.0309" y2="24.0263" gradientUnits="userSpaceOnUse">
<stop stop-color="#FFAF37" stop-opacity="0.34"/>
<stop offset="0.484375" stop-color="#FFAF37"/>
<stop offset="1" stop-color="#FFAF37" stop-opacity="0.34"/>
</linearGradient>
<linearGradient id="paint3_linear" x1="49.53" y1="8.89841" x2="48.753" y2="36.7783" gradientUnits="userSpaceOnUse">
<stop stop-color="white" stop-opacity="0"/>
<stop offset="0.494279" stop-color="white"/>
<stop offset="1" stop-color="white" stop-opacity="0"/>
</linearGradient>
</defs>
</svg>
